<mxfile host="app.diagrams.net" modified="2023-11-26T14:44:34.388Z" agent="Mozilla/5.0 (Windows NT 10.0; Win64; x64) AppleWebKit/537.36 (KHTML, like Gecko) Chrome/109.0.0.0 Safari/537.36" etag="sEDtTa3Ya3y9Gh5FJC1s" version="22.1.4" type="device">
  <diagram name="Page-1" id="ot3oJ0A_FJG3IO7jYxw4">
    <mxGraphModel dx="868" dy="432" grid="1" gridSize="10" guides="1" tooltips="1" connect="1" arrows="1" fold="1" page="1" pageScale="1" pageWidth="850" pageHeight="1100" math="0" shadow="0">
      <root>
        <mxCell id="0" />
        <mxCell id="1" parent="0" />
        <mxCell id="2TrJgn0k99Wz9AcOf1YM-95" value="" style="rounded=0;whiteSpace=wrap;html=1;" parent="1" vertex="1">
          <mxGeometry x="50" y="170" width="280" height="40" as="geometry" />
        </mxCell>
        <mxCell id="2TrJgn0k99Wz9AcOf1YM-96" value="opcode" style="text;html=1;strokeColor=none;fillColor=none;align=center;verticalAlign=middle;whiteSpace=wrap;rounded=0;" parent="1" vertex="1">
          <mxGeometry x="50" y="175" width="60" height="30" as="geometry" />
        </mxCell>
        <mxCell id="2TrJgn0k99Wz9AcOf1YM-97" value="" style="endArrow=none;html=1;rounded=0;entryX=0.325;entryY=0.018;entryDx=0;entryDy=0;entryPerimeter=0;" parent="1" edge="1">
          <mxGeometry width="50" height="50" relative="1" as="geometry">
            <mxPoint x="110" y="210" as="sourcePoint" />
            <mxPoint x="110" y="170" as="targetPoint" />
          </mxGeometry>
        </mxCell>
        <mxCell id="2TrJgn0k99Wz9AcOf1YM-98" value="address of base register" style="text;html=1;strokeColor=none;fillColor=none;align=center;verticalAlign=middle;whiteSpace=wrap;rounded=0;" parent="1" vertex="1">
          <mxGeometry x="110" y="175" width="110" height="30" as="geometry" />
        </mxCell>
        <mxCell id="2TrJgn0k99Wz9AcOf1YM-99" value="Base Relative" style="text;html=1;strokeColor=none;fillColor=none;align=center;verticalAlign=middle;whiteSpace=wrap;rounded=0;fontStyle=2" parent="1" vertex="1">
          <mxGeometry x="60" y="130" width="260" height="30" as="geometry" />
        </mxCell>
        <mxCell id="2TrJgn0k99Wz9AcOf1YM-100" value="" style="rounded=0;whiteSpace=wrap;html=1;" parent="1" vertex="1">
          <mxGeometry x="220" y="295" width="80" height="120" as="geometry" />
        </mxCell>
        <mxCell id="2TrJgn0k99Wz9AcOf1YM-101" value="" style="endArrow=none;html=1;rounded=0;" parent="1" edge="1">
          <mxGeometry width="50" height="50" relative="1" as="geometry">
            <mxPoint x="220" y="315" as="sourcePoint" />
            <mxPoint x="300" y="315" as="targetPoint" />
          </mxGeometry>
        </mxCell>
        <mxCell id="2TrJgn0k99Wz9AcOf1YM-102" value="" style="endArrow=none;html=1;rounded=0;" parent="1" edge="1">
          <mxGeometry width="50" height="50" relative="1" as="geometry">
            <mxPoint x="220" y="335" as="sourcePoint" />
            <mxPoint x="300" y="335" as="targetPoint" />
          </mxGeometry>
        </mxCell>
        <mxCell id="2TrJgn0k99Wz9AcOf1YM-103" value="" style="endArrow=none;html=1;rounded=0;" parent="1" edge="1">
          <mxGeometry width="50" height="50" relative="1" as="geometry">
            <mxPoint x="220" y="354.79999999999995" as="sourcePoint" />
            <mxPoint x="300" y="354.79999999999995" as="targetPoint" />
          </mxGeometry>
        </mxCell>
        <mxCell id="2TrJgn0k99Wz9AcOf1YM-104" value="" style="endArrow=none;html=1;rounded=0;" parent="1" edge="1">
          <mxGeometry width="50" height="50" relative="1" as="geometry">
            <mxPoint x="220" y="375" as="sourcePoint" />
            <mxPoint x="300" y="375" as="targetPoint" />
          </mxGeometry>
        </mxCell>
        <mxCell id="2TrJgn0k99Wz9AcOf1YM-105" value="" style="endArrow=none;html=1;rounded=0;" parent="1" edge="1">
          <mxGeometry width="50" height="50" relative="1" as="geometry">
            <mxPoint x="220" y="395" as="sourcePoint" />
            <mxPoint x="300" y="395" as="targetPoint" />
          </mxGeometry>
        </mxCell>
        <mxCell id="2TrJgn0k99Wz9AcOf1YM-106" value="base address" style="text;html=1;strokeColor=none;fillColor=none;align=center;verticalAlign=middle;whiteSpace=wrap;rounded=0;" parent="1" vertex="1">
          <mxGeometry x="220" y="335" width="80" height="20" as="geometry" />
        </mxCell>
        <mxCell id="2TrJgn0k99Wz9AcOf1YM-107" value="" style="endArrow=classic;html=1;rounded=0;entryX=0;entryY=0.5;entryDx=0;entryDy=0;" parent="1" target="2TrJgn0k99Wz9AcOf1YM-106" edge="1">
          <mxGeometry width="50" height="50" relative="1" as="geometry">
            <mxPoint x="160" y="210" as="sourcePoint" />
            <mxPoint x="300" y="310" as="targetPoint" />
            <Array as="points">
              <mxPoint x="160" y="345" />
            </Array>
          </mxGeometry>
        </mxCell>
        <mxCell id="2TrJgn0k99Wz9AcOf1YM-108" value="GPRs" style="text;html=1;strokeColor=none;fillColor=none;align=center;verticalAlign=middle;whiteSpace=wrap;rounded=0;" parent="1" vertex="1">
          <mxGeometry x="220" y="265" width="80" height="30" as="geometry" />
        </mxCell>
        <mxCell id="2TrJgn0k99Wz9AcOf1YM-109" value="" style="rounded=0;whiteSpace=wrap;html=1;" parent="1" vertex="1">
          <mxGeometry x="460" y="295" width="80" height="120" as="geometry" />
        </mxCell>
        <mxCell id="2TrJgn0k99Wz9AcOf1YM-110" value="" style="endArrow=none;html=1;rounded=0;" parent="1" edge="1">
          <mxGeometry width="50" height="50" relative="1" as="geometry">
            <mxPoint x="460" y="315" as="sourcePoint" />
            <mxPoint x="540" y="315" as="targetPoint" />
          </mxGeometry>
        </mxCell>
        <mxCell id="2TrJgn0k99Wz9AcOf1YM-111" value="" style="endArrow=none;html=1;rounded=0;" parent="1" edge="1">
          <mxGeometry width="50" height="50" relative="1" as="geometry">
            <mxPoint x="460" y="335" as="sourcePoint" />
            <mxPoint x="540" y="335" as="targetPoint" />
          </mxGeometry>
        </mxCell>
        <mxCell id="2TrJgn0k99Wz9AcOf1YM-112" value="" style="endArrow=none;html=1;rounded=0;" parent="1" edge="1">
          <mxGeometry width="50" height="50" relative="1" as="geometry">
            <mxPoint x="460" y="354.79999999999995" as="sourcePoint" />
            <mxPoint x="540" y="354.79999999999995" as="targetPoint" />
          </mxGeometry>
        </mxCell>
        <mxCell id="2TrJgn0k99Wz9AcOf1YM-113" value="" style="endArrow=none;html=1;rounded=0;" parent="1" edge="1">
          <mxGeometry width="50" height="50" relative="1" as="geometry">
            <mxPoint x="460" y="375" as="sourcePoint" />
            <mxPoint x="540" y="375" as="targetPoint" />
          </mxGeometry>
        </mxCell>
        <mxCell id="2TrJgn0k99Wz9AcOf1YM-114" value="" style="endArrow=none;html=1;rounded=0;" parent="1" edge="1">
          <mxGeometry width="50" height="50" relative="1" as="geometry">
            <mxPoint x="460" y="395" as="sourcePoint" />
            <mxPoint x="540" y="395" as="targetPoint" />
          </mxGeometry>
        </mxCell>
        <mxCell id="2TrJgn0k99Wz9AcOf1YM-115" value="memory" style="text;html=1;strokeColor=none;fillColor=none;align=center;verticalAlign=middle;whiteSpace=wrap;rounded=0;" parent="1" vertex="1">
          <mxGeometry x="460" y="265" width="80" height="30" as="geometry" />
        </mxCell>
        <mxCell id="2TrJgn0k99Wz9AcOf1YM-116" value="operand" style="text;html=1;strokeColor=none;fillColor=none;align=center;verticalAlign=middle;whiteSpace=wrap;rounded=0;" parent="1" vertex="1">
          <mxGeometry x="460" y="335" width="80" height="20" as="geometry" />
        </mxCell>
        <mxCell id="2TrJgn0k99Wz9AcOf1YM-118" value="effective address" style="text;html=1;strokeColor=none;fillColor=none;align=center;verticalAlign=middle;whiteSpace=wrap;rounded=0;" parent="1" vertex="1">
          <mxGeometry x="370" y="310" width="80" height="30" as="geometry" />
        </mxCell>
        <mxCell id="kAW9tDxv86w-MjhRQov_-2" value="displacement" style="text;html=1;strokeColor=none;fillColor=none;align=center;verticalAlign=middle;whiteSpace=wrap;rounded=0;" vertex="1" parent="1">
          <mxGeometry x="220" y="175" width="110" height="30" as="geometry" />
        </mxCell>
        <mxCell id="kAW9tDxv86w-MjhRQov_-4" value="" style="endArrow=none;html=1;rounded=0;entryX=0.611;entryY=0.009;entryDx=0;entryDy=0;exitX=0.611;exitY=0.991;exitDx=0;exitDy=0;exitPerimeter=0;entryPerimeter=0;" edge="1" parent="1" source="2TrJgn0k99Wz9AcOf1YM-95" target="2TrJgn0k99Wz9AcOf1YM-95">
          <mxGeometry width="50" height="50" relative="1" as="geometry">
            <mxPoint x="430" y="310" as="sourcePoint" />
            <mxPoint x="480" y="260" as="targetPoint" />
          </mxGeometry>
        </mxCell>
        <mxCell id="kAW9tDxv86w-MjhRQov_-5" value="+" style="ellipse;whiteSpace=wrap;html=1;aspect=fixed;" vertex="1" parent="1">
          <mxGeometry x="350" y="335" width="20" height="20" as="geometry" />
        </mxCell>
        <mxCell id="kAW9tDxv86w-MjhRQov_-6" value="" style="endArrow=classic;html=1;rounded=0;entryX=0;entryY=0.5;entryDx=0;entryDy=0;exitX=1;exitY=0.5;exitDx=0;exitDy=0;" edge="1" parent="1" source="2TrJgn0k99Wz9AcOf1YM-106" target="kAW9tDxv86w-MjhRQov_-5">
          <mxGeometry width="50" height="50" relative="1" as="geometry">
            <mxPoint x="240" y="290" as="sourcePoint" />
            <mxPoint x="290" y="240" as="targetPoint" />
          </mxGeometry>
        </mxCell>
        <mxCell id="kAW9tDxv86w-MjhRQov_-7" value="" style="endArrow=classic;html=1;rounded=0;entryX=0.5;entryY=0;entryDx=0;entryDy=0;exitX=0.8;exitY=1.01;exitDx=0;exitDy=0;exitPerimeter=0;" edge="1" parent="1" source="2TrJgn0k99Wz9AcOf1YM-95" target="kAW9tDxv86w-MjhRQov_-5">
          <mxGeometry width="50" height="50" relative="1" as="geometry">
            <mxPoint x="240" y="290" as="sourcePoint" />
            <mxPoint x="290" y="240" as="targetPoint" />
            <Array as="points">
              <mxPoint x="274" y="250" />
              <mxPoint x="360" y="250" />
            </Array>
          </mxGeometry>
        </mxCell>
        <mxCell id="kAW9tDxv86w-MjhRQov_-8" value="" style="endArrow=classic;html=1;rounded=0;entryX=0;entryY=0.5;entryDx=0;entryDy=0;exitX=1;exitY=0.5;exitDx=0;exitDy=0;" edge="1" parent="1" source="kAW9tDxv86w-MjhRQov_-5" target="2TrJgn0k99Wz9AcOf1YM-116">
          <mxGeometry width="50" height="50" relative="1" as="geometry">
            <mxPoint x="350" y="340" as="sourcePoint" />
            <mxPoint x="400" y="290" as="targetPoint" />
          </mxGeometry>
        </mxCell>
        <mxCell id="kAW9tDxv86w-MjhRQov_-70" value="" style="rounded=0;whiteSpace=wrap;html=1;" vertex="1" parent="1">
          <mxGeometry x="50" y="510" width="280" height="40" as="geometry" />
        </mxCell>
        <mxCell id="kAW9tDxv86w-MjhRQov_-71" value="opcode" style="text;html=1;strokeColor=none;fillColor=none;align=center;verticalAlign=middle;whiteSpace=wrap;rounded=0;" vertex="1" parent="1">
          <mxGeometry x="50" y="515" width="60" height="30" as="geometry" />
        </mxCell>
        <mxCell id="kAW9tDxv86w-MjhRQov_-72" value="" style="endArrow=none;html=1;rounded=0;entryX=0.325;entryY=0.018;entryDx=0;entryDy=0;entryPerimeter=0;" edge="1" parent="1">
          <mxGeometry width="50" height="50" relative="1" as="geometry">
            <mxPoint x="110" y="550" as="sourcePoint" />
            <mxPoint x="110" y="510" as="targetPoint" />
          </mxGeometry>
        </mxCell>
        <mxCell id="kAW9tDxv86w-MjhRQov_-73" value="address of base register" style="text;html=1;strokeColor=none;fillColor=none;align=center;verticalAlign=middle;whiteSpace=wrap;rounded=0;" vertex="1" parent="1">
          <mxGeometry x="110" y="515" width="110" height="30" as="geometry" />
        </mxCell>
        <mxCell id="kAW9tDxv86w-MjhRQov_-74" value="Base Indexed" style="text;html=1;strokeColor=none;fillColor=none;align=center;verticalAlign=middle;whiteSpace=wrap;rounded=0;fontStyle=2" vertex="1" parent="1">
          <mxGeometry x="60" y="470" width="260" height="30" as="geometry" />
        </mxCell>
        <mxCell id="kAW9tDxv86w-MjhRQov_-75" value="" style="rounded=0;whiteSpace=wrap;html=1;" vertex="1" parent="1">
          <mxGeometry x="340" y="635" width="80" height="120" as="geometry" />
        </mxCell>
        <mxCell id="kAW9tDxv86w-MjhRQov_-76" value="" style="endArrow=none;html=1;rounded=0;" edge="1" parent="1">
          <mxGeometry width="50" height="50" relative="1" as="geometry">
            <mxPoint x="340" y="655" as="sourcePoint" />
            <mxPoint x="420" y="655" as="targetPoint" />
          </mxGeometry>
        </mxCell>
        <mxCell id="kAW9tDxv86w-MjhRQov_-77" value="" style="endArrow=none;html=1;rounded=0;" edge="1" parent="1">
          <mxGeometry width="50" height="50" relative="1" as="geometry">
            <mxPoint x="340" y="675" as="sourcePoint" />
            <mxPoint x="420" y="675" as="targetPoint" />
          </mxGeometry>
        </mxCell>
        <mxCell id="kAW9tDxv86w-MjhRQov_-78" value="" style="endArrow=none;html=1;rounded=0;" edge="1" parent="1">
          <mxGeometry width="50" height="50" relative="1" as="geometry">
            <mxPoint x="340" y="694.8" as="sourcePoint" />
            <mxPoint x="420" y="694.8" as="targetPoint" />
          </mxGeometry>
        </mxCell>
        <mxCell id="kAW9tDxv86w-MjhRQov_-79" value="" style="endArrow=none;html=1;rounded=0;" edge="1" parent="1">
          <mxGeometry width="50" height="50" relative="1" as="geometry">
            <mxPoint x="340" y="715" as="sourcePoint" />
            <mxPoint x="420" y="715" as="targetPoint" />
          </mxGeometry>
        </mxCell>
        <mxCell id="kAW9tDxv86w-MjhRQov_-80" value="" style="endArrow=none;html=1;rounded=0;" edge="1" parent="1">
          <mxGeometry width="50" height="50" relative="1" as="geometry">
            <mxPoint x="340" y="735" as="sourcePoint" />
            <mxPoint x="420" y="735" as="targetPoint" />
          </mxGeometry>
        </mxCell>
        <mxCell id="kAW9tDxv86w-MjhRQov_-81" value="base address" style="text;html=1;strokeColor=none;fillColor=none;align=center;verticalAlign=middle;whiteSpace=wrap;rounded=0;" vertex="1" parent="1">
          <mxGeometry x="340" y="695" width="80" height="20" as="geometry" />
        </mxCell>
        <mxCell id="kAW9tDxv86w-MjhRQov_-82" value="" style="endArrow=classic;html=1;rounded=0;entryX=0;entryY=0.5;entryDx=0;entryDy=0;" edge="1" parent="1" target="kAW9tDxv86w-MjhRQov_-81">
          <mxGeometry width="50" height="50" relative="1" as="geometry">
            <mxPoint x="160" y="550" as="sourcePoint" />
            <mxPoint x="300" y="650" as="targetPoint" />
            <Array as="points">
              <mxPoint x="160" y="705" />
            </Array>
          </mxGeometry>
        </mxCell>
        <mxCell id="kAW9tDxv86w-MjhRQov_-83" value="GPRs" style="text;html=1;strokeColor=none;fillColor=none;align=center;verticalAlign=middle;whiteSpace=wrap;rounded=0;" vertex="1" parent="1">
          <mxGeometry x="340" y="605" width="80" height="30" as="geometry" />
        </mxCell>
        <mxCell id="kAW9tDxv86w-MjhRQov_-84" value="" style="rounded=0;whiteSpace=wrap;html=1;" vertex="1" parent="1">
          <mxGeometry x="580" y="635" width="80" height="120" as="geometry" />
        </mxCell>
        <mxCell id="kAW9tDxv86w-MjhRQov_-85" value="" style="endArrow=none;html=1;rounded=0;" edge="1" parent="1">
          <mxGeometry width="50" height="50" relative="1" as="geometry">
            <mxPoint x="580" y="655" as="sourcePoint" />
            <mxPoint x="660" y="655" as="targetPoint" />
          </mxGeometry>
        </mxCell>
        <mxCell id="kAW9tDxv86w-MjhRQov_-86" value="" style="endArrow=none;html=1;rounded=0;" edge="1" parent="1">
          <mxGeometry width="50" height="50" relative="1" as="geometry">
            <mxPoint x="580" y="675" as="sourcePoint" />
            <mxPoint x="660" y="675" as="targetPoint" />
          </mxGeometry>
        </mxCell>
        <mxCell id="kAW9tDxv86w-MjhRQov_-87" value="" style="endArrow=none;html=1;rounded=0;" edge="1" parent="1">
          <mxGeometry width="50" height="50" relative="1" as="geometry">
            <mxPoint x="580" y="694.8" as="sourcePoint" />
            <mxPoint x="660" y="694.8" as="targetPoint" />
          </mxGeometry>
        </mxCell>
        <mxCell id="kAW9tDxv86w-MjhRQov_-88" value="" style="endArrow=none;html=1;rounded=0;" edge="1" parent="1">
          <mxGeometry width="50" height="50" relative="1" as="geometry">
            <mxPoint x="580" y="715" as="sourcePoint" />
            <mxPoint x="660" y="715" as="targetPoint" />
          </mxGeometry>
        </mxCell>
        <mxCell id="kAW9tDxv86w-MjhRQov_-89" value="" style="endArrow=none;html=1;rounded=0;" edge="1" parent="1">
          <mxGeometry width="50" height="50" relative="1" as="geometry">
            <mxPoint x="580" y="735" as="sourcePoint" />
            <mxPoint x="660" y="735" as="targetPoint" />
          </mxGeometry>
        </mxCell>
        <mxCell id="kAW9tDxv86w-MjhRQov_-90" value="memory" style="text;html=1;strokeColor=none;fillColor=none;align=center;verticalAlign=middle;whiteSpace=wrap;rounded=0;" vertex="1" parent="1">
          <mxGeometry x="580" y="605" width="80" height="30" as="geometry" />
        </mxCell>
        <mxCell id="kAW9tDxv86w-MjhRQov_-91" value="operand" style="text;html=1;strokeColor=none;fillColor=none;align=center;verticalAlign=middle;whiteSpace=wrap;rounded=0;" vertex="1" parent="1">
          <mxGeometry x="580" y="695" width="80" height="20" as="geometry" />
        </mxCell>
        <mxCell id="kAW9tDxv86w-MjhRQov_-92" value="effective address" style="text;html=1;strokeColor=none;fillColor=none;align=center;verticalAlign=middle;whiteSpace=wrap;rounded=0;" vertex="1" parent="1">
          <mxGeometry x="490" y="665" width="80" height="30" as="geometry" />
        </mxCell>
        <mxCell id="kAW9tDxv86w-MjhRQov_-94" value="" style="endArrow=none;html=1;rounded=0;entryX=0.611;entryY=0.009;entryDx=0;entryDy=0;exitX=0.611;exitY=0.991;exitDx=0;exitDy=0;exitPerimeter=0;entryPerimeter=0;" edge="1" parent="1" source="kAW9tDxv86w-MjhRQov_-70" target="kAW9tDxv86w-MjhRQov_-70">
          <mxGeometry width="50" height="50" relative="1" as="geometry">
            <mxPoint x="430" y="650" as="sourcePoint" />
            <mxPoint x="480" y="600" as="targetPoint" />
          </mxGeometry>
        </mxCell>
        <mxCell id="kAW9tDxv86w-MjhRQov_-95" value="+" style="ellipse;whiteSpace=wrap;html=1;aspect=fixed;" vertex="1" parent="1">
          <mxGeometry x="470" y="695" width="20" height="20" as="geometry" />
        </mxCell>
        <mxCell id="kAW9tDxv86w-MjhRQov_-98" value="" style="endArrow=classic;html=1;rounded=0;entryX=0;entryY=0.583;entryDx=0;entryDy=0;exitX=1;exitY=0.5;exitDx=0;exitDy=0;entryPerimeter=0;" edge="1" parent="1" source="kAW9tDxv86w-MjhRQov_-95" target="kAW9tDxv86w-MjhRQov_-84">
          <mxGeometry width="50" height="50" relative="1" as="geometry">
            <mxPoint x="470" y="680" as="sourcePoint" />
            <mxPoint x="520" y="630" as="targetPoint" />
          </mxGeometry>
        </mxCell>
        <mxCell id="kAW9tDxv86w-MjhRQov_-99" value="address of index register" style="text;html=1;strokeColor=none;fillColor=none;align=center;verticalAlign=middle;whiteSpace=wrap;rounded=0;" vertex="1" parent="1">
          <mxGeometry x="220" y="515" width="110" height="30" as="geometry" />
        </mxCell>
        <mxCell id="kAW9tDxv86w-MjhRQov_-100" value="displacement" style="text;html=1;strokeColor=none;fillColor=none;align=center;verticalAlign=middle;whiteSpace=wrap;rounded=0;" vertex="1" parent="1">
          <mxGeometry x="340" y="655" width="80" height="20" as="geometry" />
        </mxCell>
        <mxCell id="kAW9tDxv86w-MjhRQov_-101" value="" style="endArrow=classic;html=1;rounded=0;exitX=0.801;exitY=0.997;exitDx=0;exitDy=0;exitPerimeter=0;entryX=0;entryY=0.5;entryDx=0;entryDy=0;" edge="1" parent="1" source="kAW9tDxv86w-MjhRQov_-70" target="kAW9tDxv86w-MjhRQov_-100">
          <mxGeometry width="50" height="50" relative="1" as="geometry">
            <mxPoint x="290" y="720" as="sourcePoint" />
            <mxPoint x="340" y="670" as="targetPoint" />
            <Array as="points">
              <mxPoint x="274" y="665" />
            </Array>
          </mxGeometry>
        </mxCell>
        <mxCell id="kAW9tDxv86w-MjhRQov_-102" value="" style="endArrow=classic;html=1;rounded=0;exitX=1;exitY=0.25;exitDx=0;exitDy=0;entryX=0.5;entryY=0;entryDx=0;entryDy=0;" edge="1" parent="1" source="kAW9tDxv86w-MjhRQov_-75" target="kAW9tDxv86w-MjhRQov_-95">
          <mxGeometry width="50" height="50" relative="1" as="geometry">
            <mxPoint x="410" y="710" as="sourcePoint" />
            <mxPoint x="460" y="660" as="targetPoint" />
            <Array as="points">
              <mxPoint x="480" y="665" />
            </Array>
          </mxGeometry>
        </mxCell>
        <mxCell id="kAW9tDxv86w-MjhRQov_-103" value="" style="endArrow=classic;html=1;rounded=0;exitX=1;exitY=0.5;exitDx=0;exitDy=0;entryX=0;entryY=0.5;entryDx=0;entryDy=0;" edge="1" parent="1" source="kAW9tDxv86w-MjhRQov_-81" target="kAW9tDxv86w-MjhRQov_-95">
          <mxGeometry width="50" height="50" relative="1" as="geometry">
            <mxPoint x="400" y="690" as="sourcePoint" />
            <mxPoint x="450" y="640" as="targetPoint" />
          </mxGeometry>
        </mxCell>
      </root>
    </mxGraphModel>
  </diagram>
</mxfile>
